<svg xmlns="http://www.w3.org/2000/svg" width="960" height="420" viewBox="0 0 960 420" fill="none">
  <defs>
    <linearGradient id="bg" x1="0" y1="0" x2="960" y2="420" gradientUnits="userSpaceOnUse">
      <stop stop-color="#0c1624"/>
      <stop offset="0.55" stop-color="#102033"/>
      <stop offset="1" stop-color="#0a1420"/>
    </linearGradient>
    <linearGradient id="a" x1="80" y1="60" x2="420" y2="360" gradientUnits="userSpaceOnUse">
      <stop stop-color="#4fd1c5"/>
      <stop offset="1" stop-color="#38bdf8" stop-opacity="0.2"/>
    </linearGradient>
    <linearGradient id="b" x1="520" y1="40" x2="900" y2="380" gradientUnits="userSpaceOnUse">
      <stop stop-color="#7dd3fc"/>
      <stop offset="1" stop-color="#4fd1c5" stop-opacity="0.15"/>
    </linearGradient>
    <filter id="blur" x="-20%" y="-20%" width="140%" height="140%">
      <feGaussianBlur stdDeviation="18"/>
    </filter>
  </defs>
  <rect width="960" height="420" rx="28" fill="url(#bg)"/>
  <circle cx="210" cy="160" r="120" fill="url(#a)" filter="url(#blur)" opacity="0.55"/>
  <circle cx="720" cy="230" r="150" fill="url(#b)" filter="url(#blur)" opacity="0.45"/>
  <rect x="72" y="78" width="360" height="220" rx="22" fill="#ffffff" fill-opacity="0.04" stroke="#ffffff" stroke-opacity="0.12"/>
  <rect x="96" y="108" width="140" height="14" rx="7" fill="#4fd1c5" fill-opacity="0.85"/>
  <rect x="96" y="140" width="280" height="10" rx="5" fill="#ffffff" fill-opacity="0.18"/>
  <rect x="96" y="164" width="240" height="10" rx="5" fill="#ffffff" fill-opacity="0.12"/>
  <rect x="96" y="210" width="110" height="42" rx="14" fill="url(#a)"/>
  <rect x="220" y="210" width="110" height="42" rx="14" fill="#ffffff" fill-opacity="0.06" stroke="#7dd3fc" stroke-opacity="0.4"/>
  <rect x="480" y="78" width="408" height="264" rx="22" fill="#ffffff" fill-opacity="0.035" stroke="#ffffff" stroke-opacity="0.1"/>
  <rect x="512" y="118" width="150" height="88" rx="16" fill="#4fd1c5" fill-opacity="0.18" stroke="#4fd1c5" stroke-opacity="0.35"/>
  <rect x="682" y="118" width="170" height="88" rx="16" fill="#7dd3fc" fill-opacity="0.14" stroke="#7dd3fc" stroke-opacity="0.3"/>
  <rect x="512" y="226" width="344" height="78" rx="16" fill="#ffffff" fill-opacity="0.05"/>
  <circle cx="548" cy="265" r="10" fill="#4fd1c5"/>
  <rect x="572" y="258" width="160" height="8" rx="4" fill="#ffffff" fill-opacity="0.25"/>
  <rect x="572" y="274" width="120" height="6" rx="3" fill="#ffffff" fill-opacity="0.12"/>
  <text x="72" y="370" fill="#8b97a8" font-family="ui-sans-serif,system-ui" font-size="14">next/image � App Router � Server Actions</text>
</svg>
